<svg xmlns="http://www.w3.org/2000/svg" width="2380" height="970" viewBox="0 0 2380 970">
<title>BPMN v2 · Chegada, aprovação, visitas e saída</title>
<rect width="100%" height="100%" fill="white"/>
<defs><marker id="arrow" markerWidth="8" markerHeight="8" refX="7" refY="4" orient="auto"><path d="M0 0 L8 4 L0 8" fill="#597085"/></marker></defs>
<text x="35" y="44" dominant-baseline="middle" text-anchor="start" font-family="Arial,sans-serif" font-size="26" font-weight="bold" fill="#152c40">BPMN v2 · Chegada, aprovação, visitas e saída</text>
<text x="35" y="89" dominant-baseline="middle" text-anchor="start" font-family="Arial,sans-serif" font-size="14" font-weight="normal" fill="#152c40">Percurso principal: chegada pode anteceder aprovação; divergência impede concluir a última visita. Exceções constam no texto do processo.</text>
<rect x="40" y="125" width="2300" height="145" fill="#f3f6f9" stroke="#cad6df"/>
<text x="52" y="143" dominant-baseline="middle" text-anchor="start" font-family="Arial,sans-serif" font-size="16" font-weight="bold" fill="#152c40">Fornecedor / cadastro assistido</text>
<rect x="40" y="290" width="2300" height="150" fill="#f2f7fb" stroke="#cad6df"/>
<text x="52" y="308" dominant-baseline="middle" text-anchor="start" font-family="Arial,sans-serif" font-size="16" font-weight="bold" fill="#152c40">Portaria</text>
<rect x="40" y="460" width="2300" height="150" fill="#f8f8f3" stroke="#cad6df"/>
<text x="52" y="478" dominant-baseline="middle" text-anchor="start" font-family="Arial,sans-serif" font-size="16" font-weight="bold" fill="#152c40">Compras</text>
<rect x="40" y="630" width="2300" height="280" fill="#f2f8f4" stroke="#cad6df"/>
<text x="52" y="648" dominant-baseline="middle" text-anchor="start" font-family="Arial,sans-serif" font-size="16" font-weight="bold" fill="#152c40">Armazém</text>
<polyline points="225.0,250 225,285 190,285 192.5,760" fill="none" stroke="#597085" stroke-width="1.5" marker-end="url(#arrow)" stroke-dasharray="7 5"/>
<polyline points="215,782.5 290,782.5" fill="none" stroke="#597085" stroke-width="1.5" marker-end="url(#arrow)"/>
<polyline points="322.5,750 322,367 440,367.5" fill="none" stroke="#597085" stroke-width="1.5" marker-end="url(#arrow)"/>
<polyline points="322.5,750 370,782 370,547 440,547.5" fill="none" stroke="#597085" stroke-width="1.5" marker-end="url(#arrow)"/>
<polyline points="570.0,590 570,650 835,650 835.0,690" fill="none" stroke="#597085" stroke-width="1.5" marker-end="url(#arrow)"/>
<polyline points="700,367.5 1052,367 1052.5,710" fill="none" stroke="#597085" stroke-width="1.5" marker-end="url(#arrow)"/>
<polyline points="960,737.5 990.0,737.5 990.0,742.5 1020,742.5" fill="none" stroke="#597085" stroke-width="1.5" marker-end="url(#arrow)"/>
<polyline points="1085,742.5 1117.5,742.5 1117.5,737.5 1150,737.5" fill="none" stroke="#597085" stroke-width="1.5" marker-end="url(#arrow)"/>
<polyline points="1380,737.5 1440,737.5" fill="none" stroke="#597085" stroke-width="1.5" marker-end="url(#arrow)"/>
<polyline points="1690,737.5 1730.0,737.5 1730.0,742.5 1770,742.5" fill="none" stroke="#597085" stroke-width="1.5" marker-end="url(#arrow)"/>
<polyline points="1807.5,705 1808.75,705 1808.75,590 1810.0,590" fill="none" stroke="#597085" stroke-width="1.5" marker-end="url(#arrow)"/>
<polyline points="1940,547.5 1880,547 1880,742 1845,742.5" fill="none" stroke="#597085" stroke-width="1.5" marker-end="url(#arrow)"/>
<polyline points="1845,742.5 1887.5,742.5 1887.5,737.5 1930,737.5" fill="none" stroke="#597085" stroke-width="1.5" marker-end="url(#arrow)"/>
<polyline points="2055.0,690 2055.0,410" fill="none" stroke="#597085" stroke-width="1.5" marker-end="url(#arrow)"/>
<polyline points="2180,367.5 2270,367.5" fill="none" stroke="#597085" stroke-width="1.5" marker-end="url(#arrow)"/>
<rect x="100" y="160" width="250" height="90" rx="7" fill="#e8f1f7" stroke="#597085"/>
<text x="225.0" y="192.0" dominant-baseline="middle" text-anchor="middle" font-family="Arial,sans-serif" font-size="16" font-weight="bold" fill="#152c40">Solicitar carga</text>
<text x="225.0" y="217.0" dominant-baseline="middle" text-anchor="middle" font-family="Arial,sans-serif" font-size="16" font-weight="normal" fill="#152c40">Notas / horário global</text>
<ellipse cx="192.5" cy="782.5" rx="22.5" ry="22.5" fill="#dff0e8" stroke="#597085" stroke-width="1.5"/>
<text x="192.5" y="782.0" dominant-baseline="middle" text-anchor="middle" font-family="Arial,sans-serif" font-size="16" font-weight="bold" fill="#152c40"></text>
<polygon points="322.5,750 355,782.5 322.5,815 290,782.5" fill="#fff4d9" stroke="#597085"/>
<text x="322.5" y="782.0" dominant-baseline="middle" text-anchor="middle" font-family="Arial,sans-serif" font-size="16" font-weight="bold" fill="#152c40">+</text>
<rect x="440" y="325" width="260" height="85" rx="7" fill="#e8f1f7" stroke="#597085"/>
<text x="570.0" y="354.5" dominant-baseline="middle" text-anchor="middle" font-family="Arial,sans-serif" font-size="16" font-weight="bold" fill="#152c40">Chegada à Portaria</text>
<text x="570.0" y="379.5" dominant-baseline="middle" text-anchor="middle" font-family="Arial,sans-serif" font-size="16" font-weight="normal" fill="#152c40">Independe das aprovações</text>
<rect x="440" y="505" width="260" height="85" rx="7" fill="#e8f1f7" stroke="#597085"/>
<text x="570.0" y="534.5" dominant-baseline="middle" text-anchor="middle" font-family="Arial,sans-serif" font-size="16" font-weight="bold" fill="#152c40">Conferir notas / pedido</text>
<text x="570.0" y="559.5" dominant-baseline="middle" text-anchor="middle" font-family="Arial,sans-serif" font-size="16" font-weight="normal" fill="#152c40">Compras decide</text>
<rect x="710" y="690" width="250" height="95" rx="7" fill="#e8f1f7" stroke="#597085"/>
<text x="835.0" y="724.5" dominant-baseline="middle" text-anchor="middle" font-family="Arial,sans-serif" font-size="16" font-weight="bold" fill="#152c40">Confirmar destinos</text>
<text x="835.0" y="749.5" dominant-baseline="middle" text-anchor="middle" font-family="Arial,sans-serif" font-size="16" font-weight="normal" fill="#152c40">Armazém após Compras</text>
<polygon points="1052.5,710 1085,742.5 1052.5,775 1020,742.5" fill="#fff4d9" stroke="#597085"/>
<text x="1052.5" y="742.0" dominant-baseline="middle" text-anchor="middle" font-family="Arial,sans-serif" font-size="16" font-weight="bold" fill="#152c40">+</text>
<rect x="1150" y="690" width="230" height="95" rx="7" fill="#e8f1f7" stroke="#597085"/>
<text x="1265.0" y="724.5" dominant-baseline="middle" text-anchor="middle" font-family="Arial,sans-serif" font-size="16" font-weight="bold" fill="#152c40">Executar visitas</text>
<text x="1265.0" y="749.5" dominant-baseline="middle" text-anchor="middle" font-family="Arial,sans-serif" font-size="16" font-weight="normal" fill="#152c40">Sequência / recursos</text>
<rect x="1440" y="690" width="250" height="95" rx="7" fill="#e8f1f7" stroke="#597085"/>
<text x="1565.0" y="724.5" dominant-baseline="middle" text-anchor="middle" font-family="Arial,sans-serif" font-size="16" font-weight="bold" fill="#152c40">Conferir todos os itens</text>
<text x="1565.0" y="749.5" dominant-baseline="middle" text-anchor="middle" font-family="Arial,sans-serif" font-size="16" font-weight="normal" fill="#152c40">Aceito / recusado / motivo</text>
<polygon points="1807.5,705 1845,742.5 1807.5,780 1770,742.5" fill="#fff4d9" stroke="#597085"/>
<text x="1807.5" y="742.0" dominant-baseline="middle" text-anchor="middle" font-family="Arial,sans-serif" font-size="16" font-weight="bold" fill="#152c40">×</text>
<rect x="1680" y="505" width="260" height="85" rx="7" fill="#e8f1f7" stroke="#597085"/>
<text x="1810.0" y="534.5" dominant-baseline="middle" text-anchor="middle" font-family="Arial,sans-serif" font-size="16" font-weight="bold" fill="#152c40">Decidir divergência</text>
<text x="1810.0" y="559.5" dominant-baseline="middle" text-anchor="middle" font-family="Arial,sans-serif" font-size="16" font-weight="normal" fill="#152c40">Compras / justificativa</text>
<rect x="1930" y="690" width="250" height="95" rx="7" fill="#e8f1f7" stroke="#597085"/>
<text x="2055.0" y="724.5" dominant-baseline="middle" text-anchor="middle" font-family="Arial,sans-serif" font-size="16" font-weight="bold" fill="#152c40">Última saída do local</text>
<text x="2055.0" y="749.5" dominant-baseline="middle" text-anchor="middle" font-family="Arial,sans-serif" font-size="16" font-weight="normal" fill="#152c40">Descarga concluída</text>
<rect x="1930" y="325" width="250" height="85" rx="7" fill="#e8f1f7" stroke="#597085"/>
<text x="2055.0" y="354.5" dominant-baseline="middle" text-anchor="middle" font-family="Arial,sans-serif" font-size="16" font-weight="bold" fill="#152c40">Saída da Portaria</text>
<text x="2055.0" y="379.5" dominant-baseline="middle" text-anchor="middle" font-family="Arial,sans-serif" font-size="16" font-weight="normal" fill="#152c40">Permanência total</text>
<ellipse cx="2292.5" cy="367.5" rx="22.5" ry="22.5" fill="#dff0e8" stroke="#597085" stroke-width="1.5"/>
<ellipse cx="2292.5" cy="367.5" rx="18.5" ry="18.5" fill="none" stroke="#597085"/>
<text x="2292.5" y="367.0" dominant-baseline="middle" text-anchor="middle" font-family="Arial,sans-serif" font-size="16" font-weight="bold" fill="#152c40"></text>
<rect x="153.25" y="500.5" width="76.0" height="20" fill="white"/>
<text x="191.25" y="510.5" dominant-baseline="middle" text-anchor="middle" font-family="Arial,sans-serif" font-size="14" font-weight="normal" fill="#152c40">solicitação</text>
<rect x="667.75" y="628.0" width="69.5" height="20" fill="white"/>
<text x="702.5" y="638.0" dominant-baseline="middle" text-anchor="middle" font-family="Arial,sans-serif" font-size="14" font-weight="normal" fill="#152c40">aprovado</text>
<rect x="810.0" y="345.25" width="132.0" height="20" fill="white"/>
<text x="876.0" y="355.25" dominant-baseline="middle" text-anchor="middle" font-family="Arial,sans-serif" font-size="14" font-weight="normal" fill="#152c40">chegada registrada</text>
<rect x="1672.75" y="715.5" width="74.5" height="20" fill="white"/>
<text x="1710.0" y="725.5" dominant-baseline="middle" text-anchor="middle" font-family="Arial,sans-serif" font-size="14" font-weight="normal" fill="#152c40">resolvido?</text>
<rect x="1791.75" y="625.5" width="34.0" height="20" fill="white"/>
<text x="1808.75" y="635.5" dominant-baseline="middle" text-anchor="middle" font-family="Arial,sans-serif" font-size="14" font-weight="normal" fill="#152c40">não</text>
<rect x="1850.5" y="622.5" width="59.0" height="20" fill="white"/>
<text x="1880.0" y="632.5" dominant-baseline="middle" text-anchor="middle" font-family="Arial,sans-serif" font-size="14" font-weight="normal" fill="#152c40">decisão</text>
<rect x="1850.5" y="720.5" width="31.5" height="20" fill="white"/>
<text x="1866.25" y="730.5" dominant-baseline="middle" text-anchor="middle" font-family="Arial,sans-serif" font-size="14" font-weight="normal" fill="#152c40">sim</text>
</svg>